<?xml version="1.0" standalone="no"?>
<!DOCTYPE svg PUBLIC "-//W3C//DTD SVG 1.1//EN" "http://www.w3.org/Graphics/SVG/1.1/DTD/svg11.dtd" >
<svg xmlns="http://www.w3.org/2000/svg">
<metadata>Generated by IcoMoon</metadata>
<defs>
<font id="icomoon" horiz-adv-x="1024">
<font-face units-per-em="1024" ascent="960" descent="-64" />
<missing-glyph horiz-adv-x="1024" />
<glyph unicode="&#x20;" d="" horiz-adv-x="512" />
<glyph unicode="&#xe600;" d="M0 960v-320.001h191.999v-191.999l192.004 191.999h639.997v320.001zM128.003 256.001v191.999h-128.003v-320.001h640.003l191.994-191.999v191.999h192.004v320.001h-703.999z" />
<glyph unicode="&#xe601;" d="M843.748 512.001h-11.75v383.999h-207.999l16.003 64.001h-447.999l15.997-64.001h-207.999v-831.998h320.003v-128.001h703.997v422.812l-180.252 153.189zM576.001 895.999l-64.006-128.001h-191.991l-64.006 128.001h320.003zM320.003 191.997h-192.002v512h575.995v-191.997h-383.993v-320.003zM959.999 0.001h-576.001v447.999h436.249l139.751-118.817v-329.183zM447.999 255.998h447.999v-64.001h-447.999v64.001zM447.999 128.002h447.999v-64.001h-447.999v64.001zM447.999 383.999h320.003v-64.001h-320.003v64.001z" />
<glyph unicode="&#xe602;" d="M70.502 147.501h211.496v-211.501h-211.496v211.501zM352.499 288.499h211.501v-352.499h-211.501v352.499zM634.497 429.498h211.501v-493.498h-211.501v493.498zM916.494 570.497h211.501v-634.497h-211.501v634.497zM972.398 804.404h-208.603l-274.021-205.473-142.13 71.050-347.644-289.71v-91.772l357.355 297.828 139.857-69.944 289.989 217.523h214.393l126.401 126.401v99.692z" horiz-adv-x="1128" />
<glyph unicode="&#xe603;" d="M967.067 547.636h-142.684c-8.464 27.338-20.394 53.175-34.866 77.174l94.541 94.839c22.332 22.073 22.332 58.174 0 80.407l-40.137 40.104c-22.266 22.166-58.261 22.067-80.407 0l-96.273-96.107c-25.997 14.831-54.204 26.269-84.204 34.003v125.005c0 31.334-25.333 56.939-56.846 56.939h-56.827c-31.341 0-56.846-25.605-56.846-56.939v-125.005c-32.675-8.232-63.332-21.337-91.5-38.404l-80.507 80.507c-22.16 22.067-58.327 22.166-80.5 0l-40.336-40.17c-22.166-22.173-21.901-58.34 0.173-80.613l82-81.994c-17.327-30.232-30.332-63.239-37.76-98.238h-107.081c-31.5-0.007-57.006-25.439-57.006-56.913v-56.866c0-31.334 25.506-56.734 57.006-56.734h114.337c10.336-34.335 26.003-65.941 46.006-94.68l-77.34-77.327c-22.266-22.339-22.266-58.407-0.159-80.613l40.164-40.21c22.339-22 58.44-22 80.573 0.139l86.441 86.335c29.104-14.472 60.67-24.928 93.91-30.338v-118.937c0-31.394 25.433-56.933 56.866-56.999h56.9c31.334 0.066 56.807 25.599 56.807 56.999v133.609c28.672 10.137 55.877 23.746 80.473 41l91.533-91.673c22.273-22.127 58.214-22.127 80.546 0l40.137 40.27c22.405 22.133 22.405 58.141-0.139 80.473l-100.343 100.469c12.341 25.074 21.941 51.602 27.809 79.809h135.541c31.533 0 56.866 25.326 56.999 56.866v56.866c-0.133 31.348-25.466 56.946-56.999 56.946zM497.87 305.817c-78.515 0-142.179 63.538-142.179 142.212 0 78.608 63.664 142.106 142.179 142.106 78.568 0 142.312-63.498 142.312-142.106 0-78.668-63.744-142.212-142.312-142.212z" />
<glyph unicode="&#xe604;" d="M221.147 960l-221.147-127.506v-896.494h221.423v358.434l-0.132 0.252 0.132 0.258zM707.286 653.552h-262.135l-222.863-353.94-1.428-4.566v-0.51l1.428-4.59 222.863-353.946h262.135l-229.836 358.782z" horiz-adv-x="707" />
<glyph unicode="&#xe605;" d="M1024.018 6.685c0-39.036-31.655-70.685-70.697-70.685h-882.635c-39.042 0-70.685 31.649-70.685 70.685v882.629c0 39.042 31.643 70.685 70.685 70.685h882.635c39.042 0 70.697-31.643 70.697-70.685v-882.629zM428.197 771.861l-139.884-80.654v-567.069h140.059v226.73l-0.082 0.158 0.082 0.158zM735.704 578.021h-165.814l-140.973-223.88-0.901-2.892v-0.322l0.901-2.903 140.973-223.886h165.814l-145.38 226.947z" />
<glyph unicode="&#xe606;" d="M1543.786 558.507l-485.799 377.445c-49.362 38.739-120.654 29.662-159.060-19.926-38.406-49.362-29.436-120.535 19.926-159.054l376.559-292.663-381.097-329.178c-47.375-40.964-52.568-112.464-11.723-159.839 22.465-26.010 54.007-39.286 85.883-39.286 26.23 0 52.681 9.071 74.058 27.557l485.698 419.622c25.778 22.245 40.054 54.781 39.173 88.654-0.773 33.981-16.94 65.749-43.616 86.668zM292.134 464.309l376.559 292.663c49.368 38.519 58.332 109.692 19.926 159.054-38.519 49.588-109.799 58.665-159.060 19.926l-485.811-377.445c-26.671-20.919-42.831-52.687-43.717-86.668-0.779-33.874 13.502-66.409 39.179-88.654l485.805-419.622c21.371-18.48 47.816-27.557 74.058-27.557 31.768 0 63.423 13.276 85.888 39.286 40.839 47.375 35.634 118.876-11.735 159.839l-381.091 329.178z" horiz-adv-x="1587" />
<glyph unicode="&#xe607;" d="M48.979-36.783c0-8.403-2.246-15.064-6.732-19.985-4.417-4.823-10.339-7.236-17.764-7.236-7.354 0-13.241 2.459-17.658 7.377-4.274 4.777-6.41 10.972-6.41 18.59 0 8.070 2.137 14.555 6.41 19.45 4.463 5.131 10.649 7.699 18.552 7.699 7.069 0 12.766-2.387 17.1-7.161 4.337-4.777 6.502-11.020 6.502-18.734zM42.675-37.568c0 6.853-1.625 12.154-4.872 15.901-3.129 3.58-7.426 5.372-12.893 5.372-5.372 0-9.749-1.961-13.126-5.875s-5.067-9.025-5.067-15.329c0-6.399 1.671-11.532 5.016-15.398 3.247-3.776 7.497-5.66 12.752-5.66 5.539 0 9.922 1.777 13.146 5.335 3.362 3.701 5.044 8.918 5.044 15.653zM88.655-27.076c0-4.656-1.541-8.513-4.619-11.567-3.391-3.342-8.058-5.013-14.006-5.013h-6.77v-19.45h-6.016v51.358h14.112c5.539 0 9.827-1.36 12.858-4.084 2.962-2.672 4.44-6.422 4.44-11.245zM82.351-27.398c0 6.804-4.012 10.209-12.036 10.209h-7.055v-21.060h6.304c4.153 0 7.331 0.969 9.528 2.902 2.171 1.861 3.258 4.512 3.258 7.949zM123.712-63.106h-27.22v51.358h26.038v-5.444h-20.019v-17.083h18.552v-5.447h-18.552v-17.943h21.204v-5.441zM173.132-63.106h-7.308l-26.504 40.935c-0.621 0.981-1.159 2.053-1.613 3.224h-0.21c0.19-1.099 0.288-3.451 0.288-7.055v-37.105h-6.016v51.358h7.808l25.716-40.291c1.027-1.602 1.72-2.746 2.076-3.44h0.144c-0.239 1.481-0.359 4-0.359 7.558v36.173h5.982v-51.358zM234.469-27.076c0-4.656-1.541-8.513-4.619-11.567-3.391-3.342-8.058-5.013-14.006-5.013h-6.77v-19.45h-6.016v51.358h14.112c5.539 0 9.827-1.36 12.858-4.084 2.959-2.672 4.44-6.422 4.44-11.245zM228.165-27.398c0 6.804-4.012 10.209-12.036 10.209h-7.055v-21.060h6.304c4.153 0 7.331 0.969 9.528 2.902 2.171 1.861 3.258 4.512 3.258 7.949zM268.954-63.106h-26.648v51.358h6.016v-45.917h20.629v-5.441zM316.904-63.106h-6.661l-5.407 14.362h-21.811l-5.122-14.362h-6.661l19.628 51.358h6.232l19.801-51.358zM302.826-43.299l-8.058 21.848c-0.216 0.598-0.489 1.754-0.825 3.474h-0.144c-0.216-1.455-0.477-2.614-0.788-3.474l-7.986-21.848h17.802zM347.733-17.189h-14.791v-45.917h-6.016v45.917h-14.828v5.444h35.635v-5.444zM379.995-17.189h-20.019v-17.764h18.552v-5.41h-18.552v-22.743h-6.016v51.358h26.038v-5.441zM433.104-36.783c0-8.403-2.246-15.064-6.732-19.985-4.417-4.823-10.339-7.236-17.764-7.236-7.354 0-13.241 2.459-17.658 7.377-4.274 4.777-6.41 10.972-6.41 18.59 0 8.070 2.137 14.555 6.41 19.45 4.463 5.131 10.649 7.699 18.552 7.699 7.069 0 12.766-2.387 17.1-7.161 4.334-4.777 6.502-11.020 6.502-18.734zM426.8-37.568c0 6.853-1.625 12.154-4.872 15.901-3.129 3.58-7.426 5.372-12.893 5.372-5.372 0-9.749-1.961-13.126-5.875s-5.067-9.025-5.067-15.329c0-6.399 1.671-11.532 5.016-15.398 3.247-3.776 7.497-5.66 12.752-5.66 5.539 0 9.922 1.777 13.146 5.335 3.359 3.701 5.044 8.918 5.044 15.653zM474.391-63.106h-7.201l-6.732 15.472c-1.861 4.251-4.478 6.376-7.843 6.376h-5.228v-21.848h-6.016v51.358h15.329c5.062 0 8.979-1.3 11.748-3.903 2.603-2.436 3.903-5.683 3.903-9.741 0-3.701-1.044-6.799-3.135-9.295-2.091-2.493-4.863-4.147-8.329-4.961v-0.144c1.912-0.667 3.678-2.698 5.3-6.088l8.205-17.227zM466.045-25.929c0 2.721-0.894 4.857-2.686 6.41s-4.368 2.329-7.736 2.329h-8.237v-18.624h7.952c3.175 0 5.755 0.912 7.736 2.738s2.971 4.21 2.971 7.147zM534.126-63.106h-6.019v34.491c0 2.721 0.17 6.042 0.503 9.956h-0.144c-0.572-2.292-1.087-3.951-1.539-4.978l-17.514-39.469h-2.936l-17.549 39.181c-0.506 1.099-1.018 2.853-1.541 5.266h-0.144c0.19-2.053 0.288-5.395 0.288-10.028v-34.419h-5.804v51.358h7.952l15.757-35.814c1.196-2.698 1.973-4.751 2.329-6.163h0.25c1.027 2.816 1.852 4.918 2.47 6.304l16.082 35.67h7.558v-51.355zM533.812 29.57h-51.896v94.278c0 23.999-9.007 36.003-27.013 36.003-8.567 0-15.544-3.612-20.922-10.816-5.381-7.216-8.070-16.203-8.070-26.959v-92.506h-52.065v95.247c0 23.349-8.846 35.034-26.522 35.034-8.889 0-16.013-3.448-21.336-10.333-5.329-6.891-7.983-16.252-7.983-28.089v-91.859h-52.065v168.714h52.065v-29.236h0.656c4.837 8.076 11.581 14.799 20.261 20.18 10.44 6.459 21.851 9.686 34.269 9.686 23.942 0 40.251-10.276 48.93-30.835 12.858 20.557 31.738 30.835 56.672 30.835 36.682 0 55.022-22.17 55.022-66.508v-102.836zM680.739 82.553c0-15.556-5.99-28.063-17.96-37.519-13.174-10.511-31.853-15.76-56.005-15.76-17.802 0-34.105 2.732-48.945 8.199v40.352c16.913-9.772 33.007-14.664 48.269-14.664 16.482 0 24.724 4.889 24.724 14.664 0 4.305-1.979 7.828-5.936 10.56-3.954 2.732-12.579 6.517-25.863 11.345-13.73 4.944-23.72 10.615-29.978 17.025-7.477 7.673-11.213 17.813-11.213 30.427 0 15.444 6.373 27.87 19.116 37.28 12.74 9.404 29.981 14.103 51.729 14.103 13.942 0 27.89-2.151 41.841-6.462v-38.459c-13.071 7.351-26.792 11.029-41.18 11.029-13.73 0-20.594-4.515-20.594-13.554 0-4.832 1.912-8.723 5.76-11.668 3.411-2.522 10.273-5.568 20.597-9.14 15.159-5.151 26.245-11.032 33.283-17.655 8.231-7.779 12.355-17.808 12.355-30.105zM241.831 29.57h-52.059v168.7h52.059v-168.7zM241.808 244.771c0-14.369-11.649-26.018-26.018-26.018s-26.018 11.649-26.018 26.018c0 14.369 11.649 26.018 26.018 26.018 14.369 0 26.018-11.649 26.018-26.018zM914.656 78.455c13.097 20.149 19.642 44.539 19.642 73.183 0 0.216-0.017 0.423-0.023 0.647 0.006 0.219 0.023 0.431 0.023 0.659 0 15.303-2.045 29.343-6.106 42.132-5.188 16.749-13.684 31.298-25.489 43.633-19.573 20.465-44.712 31.198-75.392 32.242-0.627 0.029-1.234 0.081-1.864 0.101l-0.331-0.058c-0.926 0.017-1.846 0.058-2.784 0.058-29.72 0-54.464-7.863-74.256-23.579-9.401-7.103-17.442-15.783-24.114-26.079-13.094-20.146-19.642-44.536-19.642-73.183 0-0.216 0.006-0.426 0.017-0.647-0.012-0.219-0.017-0.434-0.017-0.659 0-15.3 2.030-29.343 6.103-42.129 5.191-16.749 13.681-31.301 25.492-43.636 19.573-20.468 44.712-31.198 75.394-32.242 0.618-0.029 1.234-0.078 1.864-0.104l0.331 0.060c0.923-0.020 1.841-0.060 2.772-0.060 15.492 0 29.604 2.157 42.391 6.419l22.096-25.874h53.449l-39.569 46.334c7.656 6.442 14.339 14.023 20.013 22.783zM819.228 74.374c-17.25 0-31.27 6.367-42.066 19.113-5.651 6.718-9.905 14.684-12.769 23.896-0.144 0.483-0.296 0.961-0.429 1.444-0.069 0.259-0.141 0.512-0.21 0.771-2.479 9.163-3.73 19.499-3.762 30.999 0.132 21.9 5.369 39.679 15.702 53.322 8.838 11.754 20.358 18.739 34.548 20.951 2.933 0.4 5.985 0.607 9.151 0.607 17.247 0 31.27-6.37 42.066-19.113 5.654-6.715 9.905-14.69 12.775-23.899 0.138-0.48 0.29-0.955 0.42-1.444 0.069-0.256 0.141-0.512 0.216-0.768 2.476-9.165 3.727-19.504 3.756-30.999-0.132-21.897-5.366-39.682-15.697-53.325-8.852-11.751-20.37-18.739-34.554-20.951-2.931-0.4-5.99-0.604-9.148-0.604zM52.011 270.751l-52.011-29.984v-210.763h52.065v84.272l-0.026 0.058 0.026 0.063zM166.299 198.63h-61.625l-52.405-83.214-0.325-1.076v-0.118l0.325-1.078 52.405-83.214h61.625l-54.035 84.35zM467.23 960l-281.835-162.724v-325.465l281.835-162.741 281.869 162.741v325.465l-281.869 162.724zM240.828 765.276l84.031 48.516v-358.498l-84.031 48.522v261.459zM326.296 454.464h87.522v143.326l0.348-1.13 89.541-142.196h104.476l-140.953-81.382-140.933 81.382zM693.663 503.817l-84.868-49-92.109 143.792 92.336 144.143h-105.318l-89.541-142.199-0.348-1.122-0.104 265.661 53.515 30.899 226.434-130.715v-261.459z" horiz-adv-x="934" />
<glyph unicode="&#xe608;" d="M443.364 960l-443.364-255.986v-512l443.364-256.014 443.418 256.014v512l-443.418 255.986zM87.203 653.673l132.192 76.323v-563.965l-132.192 76.332v411.31zM221.657 164.724h137.684v225.471l0.547-1.778 140.86-223.693h164.354l-221.738-128.025-221.707 128.025zM799.574 242.363l-133.508-77.083-144.9 226.204 145.257 226.756h-165.68l-140.86-223.697-0.547-1.764-0.163 417.92 84.186 48.608 356.21-205.632v-411.31z" horiz-adv-x="887" />
<glyph unicode="&#xe609;" d="M443.369 960l-443.369-255.978v-512.009l443.369-256.013 443.422 256.013v512.009z" horiz-adv-x="887" />
<glyph unicode="&#xe60a;" d="M149.694 19.192c0-25.683-6.865-46.039-20.576-61.078-13.501-14.74-31.598-22.114-54.293-22.114-22.475 0-40.467 7.515-53.967 22.545-13.061 14.599-19.592 33.532-19.592 56.815 0 24.663 6.531 44.484 19.592 59.443 13.641 15.68 32.547 23.529 56.701 23.529 21.605 0 39.016-7.295 52.262-21.886 13.255-14.608 19.873-33.681 19.873-57.255zM130.427 16.784c0 20.945-4.966 37.144-14.889 48.597-9.563 10.943-22.694 16.419-39.403 16.419-16.419 0-29.796-5.994-40.115-17.957s-15.487-27.581-15.487-46.848c0-19.557 5.107-35.246 15.329-47.059 9.923-11.541 22.914-17.298 38.973-17.298 16.929 0 30.324 5.432 40.177 16.304 10.275 11.312 15.417 27.265 15.417 47.841zM270.953 48.857c0-14.23-4.711-26.017-14.116-35.351-10.363-10.213-24.628-15.32-42.805-15.32h-20.69v-59.443h-18.388v156.962h43.13c16.929 0 30.034-4.157 39.298-12.481 9.053-8.174 13.571-19.627 13.571-34.367zM251.687 47.872c0 20.796-12.261 31.203-36.784 31.203h-21.561v-64.365h19.267c12.692 0 22.404 2.962 29.12 8.869 6.636 5.678 9.958 13.782 9.958 24.294zM378.097-61.258h-83.192v156.962h79.58v-16.638h-61.184v-52.209h56.701v-16.647h-56.701v-54.838h64.805v-16.63zM529.135-61.258h-22.334l-81.004 125.109c-1.899 2.997-3.542 6.276-4.931 9.853h-0.642c0.58-3.358 0.879-10.547 0.879-21.561v-113.402h-18.388v156.962h23.863l78.595-123.141c3.138-4.896 5.256-8.394 6.346-10.512h0.439c-0.73 4.527-1.099 12.226-1.099 23.099v110.554h18.282v-156.962zM716.597 48.857c0-14.23-4.711-26.017-14.116-35.351-10.363-10.213-24.628-15.32-42.805-15.32h-20.69v-59.443h-18.388v156.962h43.13c16.929 0 30.034-4.157 39.298-12.481 9.044-8.174 13.571-19.627 13.571-34.367zM697.33 47.872c0 20.796-12.261 31.203-36.784 31.203h-21.561v-64.365h19.267c12.692 0 22.404 2.962 29.12 8.869 6.636 5.678 9.958 13.782 9.958 24.294zM821.992-61.258h-81.443v156.962h18.388v-140.333h63.047v-16.63zM968.538-61.258h-20.356l-16.524 43.895h-66.659l-15.654-43.895h-20.356l59.988 156.962h19.047l60.516-156.962zM925.514-0.733l-24.628 66.774c-0.659 1.828-1.494 5.362-2.523 10.618h-0.439c-0.659-4.447-1.459-7.99-2.408-10.618l-24.408-66.774h54.407zM1062.762 79.066h-45.204v-140.333h-18.388v140.333h-45.319v16.638h108.91v-16.638zM1161.362 79.066h-61.184v-54.293h56.701v-16.533h-56.701v-69.507h-18.388v156.971h79.58v-16.638zM1323.677 19.192c0-25.683-6.865-46.039-20.576-61.078-13.501-14.74-31.598-22.114-54.293-22.114-22.475 0-40.467 7.515-53.967 22.545-13.061 14.599-19.592 33.532-19.592 56.815 0 24.663 6.531 44.484 19.592 59.443 13.641 15.68 32.547 23.529 56.701 23.529 21.605 0 39.016-7.295 52.262-21.886 13.246-14.608 19.873-33.681 19.873-57.255zM1304.411 16.784c0 20.945-4.966 37.144-14.889 48.597-9.563 10.943-22.694 16.419-39.403 16.419-16.419 0-29.796-5.994-40.115-17.957s-15.487-27.581-15.487-46.848c0-19.557 5.107-35.246 15.329-47.059 9.923-11.541 22.914-17.298 38.973-17.298 16.929 0 30.324 5.432 40.177 16.304 10.266 11.312 15.417 27.265 15.417 47.841zM1449.859-61.258h-22.009l-20.576 47.287c-5.687 12.991-13.685 19.486-23.969 19.486h-15.979v-66.774h-18.388v156.962h46.848c15.469 0 27.441-3.973 35.905-11.927 7.954-7.445 11.927-17.368 11.927-29.77 0-11.312-3.191-20.778-9.581-28.408-6.39-7.62-14.863-12.674-25.454-15.162v-0.439c5.845-2.039 11.242-8.245 16.199-18.607l25.076-52.649zM1424.352 52.355c0 8.315-2.734 14.845-8.209 19.592-5.476 4.746-13.351 7.119-23.644 7.119h-25.173v-56.921h24.303c9.704 0 17.588 2.786 23.644 8.368s9.080 12.877 9.080 21.842zM1632.425-61.258h-18.396v105.412c0 8.315 0.519 18.467 1.538 30.429h-0.439c-1.749-7.005-3.322-12.077-4.702-15.215l-53.528-120.627h-8.974l-53.633 119.748c-1.547 3.358-3.111 8.719-4.711 16.094h-0.439c0.58-6.276 0.879-16.489 0.879-30.649v-105.192h-17.737v156.962h24.303l48.158-109.455c3.656-8.245 6.030-14.52 7.119-18.836h0.765c3.138 8.605 5.66 15.030 7.55 19.267l49.151 109.016h23.099v-156.954zM1631.467 221.974h-158.606v288.137c0 73.348-27.529 110.035-82.56 110.035-26.184 0-47.507-11.040-63.943-33.057-16.445-22.053-24.663-49.52-24.663-82.393v-282.722h-159.125v291.099c0 71.362-27.036 107.073-81.057 107.073-27.168 0-48.94-10.539-65.209-31.581-16.287-21.060-24.4-49.669-24.4-85.847v-280.745h-159.125v515.634h159.125v-89.354h2.004c14.784 24.681 35.395 45.231 61.922 61.676 31.906 19.741 66.782 29.603 104.735 29.603 73.172 0 123.017-31.405 149.544-94.241 39.298 62.827 97.001 94.241 173.205 94.241 112.11 0 168.16-67.758 168.16-203.265v-314.294zM2080.512 383.912c0-47.542-18.308-85.768-54.89-114.667-40.265-32.126-97.352-48.166-171.166-48.166-54.407 0-104.234 8.35-149.588 25.059v123.316c51.691-29.867 100.877-44.818 147.523-44.818 50.372 0 75.563 14.942 75.563 44.818 0 13.158-6.047 23.925-18.141 32.275-12.086 8.35-38.445 19.917-79.044 34.674-41.961 15.109-72.496 32.442-91.621 52.034-22.853 23.45-34.27 54.442-34.27 92.993 0 47.199 19.477 85.179 58.424 113.938 38.937 28.742 91.63 43.104 158.096 43.104 42.611 0 85.24-6.575 127.878-19.75v-117.542c-39.948 22.466-81.883 33.708-125.856 33.708-41.961 0-62.941-13.799-62.941-41.425 0-14.766 5.845-26.658 17.605-35.659 10.424-7.708 31.396-17.016 62.95-27.933 46.329-15.742 80.213-33.716 101.721-53.959 25.155-23.767 37.76-54.424 37.76-91.999zM739.098 221.974h-159.107v515.591h159.107v-515.591zM739.028 879.682c0-43.917-35.602-79.518-79.518-79.518s-79.518 35.602-79.518 79.518c0 43.917 35.602 79.518 79.518 79.518 43.917 0 79.518-35.602 79.518-79.518zM2795.422 371.378c40.027 61.579 60.032 136.123 60.032 223.666 0 0.659-0.053 1.292-0.070 1.978 0.018 0.668 0.070 1.318 0.070 2.013 0 46.769-6.249 89.679-18.66 128.766-15.856 51.19-41.82 95.656-77.901 133.354-59.821 62.546-136.65 95.348-230.416 98.539-1.916 0.088-3.771 0.246-5.696 0.308l-1.011-0.176c-2.839 0.053-5.643 0.176-8.517 0.176-90.83 0-166.455-24.030-226.944-72.065-28.733-21.71-53.308-48.237-73.7-79.703-40.018-61.57-60.032-136.114-60.032-223.666 0-0.659 0.018-1.301 0.053-1.978-0.035-0.668-0.053-1.327-0.053-2.013 0-46.76 6.205-89.679 18.651-128.757 15.865-51.19 41.812-95.665 77.91-133.363 59.821-62.555 136.65-95.348 230.425-98.539 1.89-0.088 3.771-0.237 5.696-0.316l1.011 0.185c2.821-0.062 5.625-0.185 8.473-0.185 47.349 0 90.479 6.592 129.557 19.618l67.53-79.079h163.352l-120.934 141.607c23.406 19.697 43.833 42.857 61.175 69.63zM2503.769 358.906c-52.719 0-95.568 19.46-128.564 58.415-17.271 20.532-30.271 44.879-39.025 73.032-0.439 1.477-0.905 2.936-1.31 4.412-0.211 0.791-0.431 1.565-0.642 2.356-7.577 28.003-11.4 59.593-11.497 94.742 0.404 66.932 16.41 121.268 47.991 162.966 27.010 35.923 62.221 57.272 105.588 64.031 8.965 1.222 18.291 1.855 27.968 1.855 52.71 0 95.568-19.469 128.564-58.415 17.28-20.523 30.271-44.897 39.043-73.041 0.422-1.468 0.888-2.918 1.283-4.412 0.211-0.782 0.431-1.565 0.659-2.347 7.568-28.012 11.391-59.61 11.479-94.742-0.404-66.923-16.401-121.277-47.973-162.974-27.054-35.914-62.256-57.272-105.606-64.031-8.956-1.213-18.308-1.846-27.959-1.846zM158.958 959.086l-158.958-91.63v-644.145h159.125v257.549l-0.079 0.185 0.079 0.185zM508.251 738.663h-188.341l-160.162-254.315-0.993-3.287v-0.36l0.993-3.296 160.162-254.332h188.341l-165.145 257.795z" horiz-adv-x="2855" />
<glyph unicode="&#xe60b;" d="M937.39 846.514c0-55.699-45.153-100.851-100.851-100.851-55.699 0-100.851 45.153-100.851 100.851 0 55.699 45.153 100.851 100.851 100.851 55.699 0 100.851-45.153 100.851-100.851zM2069.168 12.413h-201.145v365.434c0 93.026-34.918 139.549-104.707 139.549-33.226 0-60.263-13.986-81.1-41.93-20.856-27.963-31.289-62.796-31.289-104.499v-358.564h-201.806v369.205c0 90.503-34.294 135.788-102.826 135.788-34.446 0-62.049-13.362-82.688-40.040-20.658-26.706-30.949-63.004-30.949-108.874v-356.060h-201.816v653.964h201.816v-113.335h2.552c18.73 31.308 44.888 57.362 78.54 78.228 40.456 25.024 84.682 37.545 132.84 37.545 92.8 0 156.021-39.841 189.644-119.515 49.849 79.683 123.021 119.515 219.676 119.515 142.176 0 213.269-85.939 213.269-257.798v-398.613zM2638.705 217.792c0-60.301-23.238-108.789-69.638-145.427-51.049-40.758-123.456-61.104-217.078-61.104-69.014 0-132.206 10.575-189.72 31.762v156.427c65.565-37.876 127.944-56.833 187.102-56.833 63.901 0 95.833 18.957 95.833 56.833 0 16.689-7.664 30.344-23.020 40.938-15.319 10.594-48.743 25.269-100.237 43.981-53.213 19.165-91.949 41.146-116.207 65.99-28.974 29.739-43.47 69.061-43.47 117.937 0 59.866 24.693 108.043 74.107 144.51 49.377 36.439 116.226 54.669 200.521 54.669 54.026 0 108.118-8.344 162.182-25.052v-149.065c-50.662 28.492-103.856 42.743-159.64 42.743-53.232 0-79.825-17.502-79.825-52.542 0-18.721 7.418-33.812 22.331-45.219 13.211-9.781 39.832-21.575 79.844-35.419 58.751-19.968 101.739-42.762 128.993-68.437 31.922-30.165 47.921-69.033 47.921-116.689zM937.39 12.413h-201.787v653.916h201.797v-653.916zM3552.801 206.423c51.087 78.842 76.612 174.278 76.612 286.347 0 0.86-0.057 1.663-0.095 2.542 0.038 0.86 0.095 1.682 0.095 2.561 0 59.876-7.976 114.809-23.814 164.856-20.251 65.536-53.374 122.454-99.424 170.715-76.357 80.070-174.401 122.057-294.077 126.158-2.457 0.104-4.82 0.321-7.286 0.387l-1.276-0.208c-3.619 0.066-7.201 0.217-10.858 0.217-115.933 0-212.456-30.769-289.664-92.261-36.657-27.783-68.031-61.747-94.057-102.051-51.068-78.814-76.612-174.25-76.612-286.347 0-0.841 0.019-1.673 0.057-2.514-0.038-0.879-0.057-1.72-0.057-2.57 0-59.876 7.919-114.828 23.795-164.847 20.27-65.536 53.355-122.473 99.462-170.744 76.319-80.080 174.382-122.048 294.077-126.149 2.4-0.113 4.801-0.312 7.277-0.406l1.276 0.236c3.619-0.076 7.182-0.236 10.83-0.236 60.414 0 115.489 8.439 165.357 25.118l86.175-101.239h208.497l-154.357 181.281c29.853 25.241 55.935 54.877 78.067 89.152zM3180.572 190.481c-67.294 0-121.981 24.901-164.1 74.769-22.019 26.29-38.632 57.456-49.802 93.48-0.558 1.899-1.143 3.761-1.682 5.651-0.274 1.011-0.558 2.003-0.832 3.015-9.667 35.854-14.544 76.3-14.657 121.301 0.501 85.684 20.951 155.246 61.236 208.629 34.474 45.993 79.418 73.333 134.758 81.979 11.444 1.569 23.351 2.372 35.693 2.372 67.275 0 121.981-24.929 164.082-74.788 22.056-26.252 38.632-57.466 49.83-93.49 0.539-1.89 1.125-3.742 1.644-5.661 0.274-0.992 0.558-2.003 0.851-2.996 9.667-35.854 14.525-76.309 14.638-121.292-0.501-85.684-20.932-155.265-61.227-208.639-34.531-46.003-79.456-73.333-134.777-81.989-11.425-1.55-23.342-2.344-35.655-2.344zM201.608 947.724l-201.608-116.104v-818.915h201.825v326.32l-0.113 0.217 0.113 0.236zM644.618 666.33h-238.86l-203.148-322.559-1.266-4.158v-0.463l1.266-4.186 203.148-322.55h238.86l-209.451 326.953z" horiz-adv-x="3629" />
<glyph unicode="&#xe60c;" d="M848.147 272.222l175.786 175.781-167.79 167.79c-6.293-23.9-18.252-46.666-37.059-65.334-56.488-56.565-148.199-56.565-204.768 0-56.493 56.493-56.493 148.209 0 204.773 18.812 18.668 41.573 30.685 65.411 36.983l-167.795 167.786-170.129-170.124c-6.862 20.93-17.994 40.765-34.649 57.416-56.565 56.565-148.204 56.565-204.768 0-56.569-56.569-56.569-148.276 0-204.773 16.65-16.65 36.486-27.787 57.411-34.645l-159.795-159.805 167.723-167.857c6.36 23.904 18.31 46.666 37.045 65.401 56.569 56.498 148.209 56.498 204.778 0 56.565-56.569 56.565-148.271 0-204.768-18.735-18.745-41.44-30.766-65.334-36.983l167.723-167.862 165.457 165.462c5.447-26.874 18.453-52.538 39.316-73.401 56.565-56.565 148.276-56.493 204.773 0 56.565 56.569 56.627 148.28 0.067 204.845-20.801 20.791-46.527 33.875-73.401 39.316z" />
<glyph unicode="&#xe60d;" d="M211.539-64c-42.767 0-84.952 19.797-124.589 59.402l-5.747 5.717c-40.831 40.28-160.586 205.902 0.576 375.604 81.141 85.394 193.047 196 311.509 313.071 63.661 62.87 129.968 128.332 195.835 194.266 119.007 118.909 206.030 91.76 340.974-36.775 159.427-151.775 188.611-301.129 119.681-380.671-91.582-105.54-437.935-452.089-452.628-466.714-19.392-19.466-50.831-19.466-70.223 0-19.392 19.319-19.392 50.757 0 70.223 3.535 3.529 358.589 358.657 447.8 461.574 20.477 23.614 23.614 113.499-113.162 243.7-78.66 74.984-102.065 138.571-202.232 38.411-65.995-66.038-132.407-131.672-196.233-194.64-117.886-116.525-229.277-226.587-309.327-310.896-94.008-98.935-45.69-194.193-2.825-236.525l6.225-6.127c36.511-36.462 66.344-46.266 119.693 7.083 14.871 14.901 45.69 44.906 84.511 82.6 107.476 104.382 307.489 298.85 347.916 349.405 12.855 16.022 31.567 54.813 13.676 70.425-24.57 21.574-69.886-21.947-83.090-35.788-140.17-147.179-323.242-323.481-325.080-325.252-19.735-18.988-51.174-18.443-70.192 1.36-19.019 19.797-18.436 51.168 1.33 70.217 1.838 1.771 183.446 176.645 322.090 322.158 89.885 94.48 172.834 83.66 220.325 42.087 57.907-50.628 44.293-150.108-1.495-207.194-40.831-51.174-198.42-205.222-356.249-358.595-38.343-37.363-68.826-66.957-83.525-81.65-44.262-44.293-90.228-66.473-135.544-66.473v0z" horiz-adv-x="1085" />
<glyph unicode="&#xe60e;" d="M0 820.941v-393.344l491.667-491.596 393.344 393.279-491.662 491.629-393.349 0.033zM208.591 525.437c-47.937 0-86.913 38.976-86.913 86.913s38.976 86.913 86.913 86.913 86.913-38.976 86.913-86.913-38.976-86.913-86.913-86.913zM462.876 959.967l-393.349 0.033v-69.532l333.732-0.033 500.628-486.672 50.651 64.575z" horiz-adv-x="955" />
<glyph unicode="&#xe60f;" d="M832.002 320.001v127.999 63.999h-255.998v63.999h191.998v64.004 319.997h-448.001v-384.001h192.003v-63.999h-320.002v-63.999-127.999h-192.003v-384.001h448.001v63.999 319.997h-191.998v127.999h511.995v-127.999h-191.998v-384.001h448.001v63.999 319.997h-191.998zM384.001 255.997v-64.004h-320.002v64.004h320.002zM384.001 832.001v63.999h319.997v-63.999h-319.997zM960.001 191.998h-320.007v64.004h320.007v-64.004z" />
<glyph unicode="&#xe610;" d="M1014.536 83l-178.575 178.641c45.213 70.541 71.809 154.377 71.809 244.461 0 250.695-203.137 453.898-453.865 453.898-250.702 0-453.905-203.203-453.905-453.905 0-250.662 203.203-453.931 453.905-453.931 90.136 0 173.853 26.589 244.467 71.935l178.628-178.694c12.535-12.535 33.187-12.535 45.854 0l91.688 91.754c12.661 12.601 12.661 33.24-0.007 45.841zM453.905 181.847c-178.76 0-324.215 145.521-324.215 324.254 0 178.76 145.455 324.215 324.215 324.215 178.793 0 324.182-145.455 324.182-324.215-0.007-178.734-145.388-324.254-324.182-324.254z" />
<glyph unicode="&#xe611;" d="M1024.006 703.997l-512.006 256.003-512-256.003 512-255.997zM512 354.001l-315.997 157.998-196.003-63.999 512-256.003 512.006 256.003-179.998 67.999zM512 97.998l-315.997 157.998-196.003-63.999 512-255.997 512.006 255.997-179.998 68.005z" />
<glyph unicode="&#xe612;" d="M447.998-64c70.687 0 128 57.313 128 128h-256c0-70.687 57.317-128 128-128zM831.994 256.002c-54.871 0-54.871 38.127-54.871 57.563 0 225.842-68.564 417.408-205.065 488.502-13.559 69.839-63.744 157.932-124.060 157.932s-110.501-88.093-124.060-157.936c-136.497-71.090-205.065-262.657-205.065-488.502 0-19.433 0-57.563-54.871-57.563h-64.002v-128h896v128h-64.006zM192.002 320c0 191.998 127.996 384 191.994 448.002v-448.002c0 0-63.998 0-191.994 0z" horiz-adv-x="896" />
<glyph unicode="&#xe613;" d="M0 213.695l555.39-277.695v352.877l-555.39 277.695zM624.817-58.241l485.967 242.986v381.826l-485.902-268.945zM971.925 696.745v-15.864h-0.478c-2.305-24.948-63.172-44.883-138.363-44.883-75.187 0-136.072 19.93-138.381 44.883h-0.478v93.962 2.917h0.881c-0.204-0.983-0.881-1.901-0.881-2.917 0-25.56 62.175-46.237 138.854-46.237 76.684 0 138.836 20.672 138.836 46.237 0 25.625-62.152 46.306-138.836 46.306-43.186 0-81.229-6.677-106.719-16.986l-33.021 14.477c-3.983-24.442-63.918-43.798-137.959-43.798-74.036 0-133.971 19.355-137.964 43.798l-33.021-14.477c-25.486 10.308-63.524 16.986-106.71 16.986-76.68 0-138.845-20.682-138.845-46.306 0-25.56 62.165-46.237 138.845-46.237 76.684 0 138.85 20.672 138.85 46.237 0 1.016-0.677 1.934-0.881 2.917h0.881v-2.917-93.967h-0.478c-2.309-24.948-63.186-44.883-138.372-44.883s-136.063 19.93-138.372 44.883h-0.478v15.864l-138.836-60.742 555.39-277.695 555.394 277.695-138.859 60.746zM694.23 630.235v-93.967h-0.478c-2.305-24.948-63.172-44.883-138.367-44.883-75.191 0-136.067 19.935-138.372 44.883h-0.478v93.967 2.912h0.881c-0.204-0.978-0.881-1.897-0.881-2.912 0-25.56 62.165-46.237 138.845-46.237 76.694 0.005 138.85 20.682 138.85 46.237 0 1.020-0.677 1.934-0.881 2.912h0.881v-2.912zM555.39 867.457c76.684 0 138.84 20.677 138.84 46.237 0 25.625-62.156 46.306-138.84 46.306-76.68 0-138.845-20.682-138.845-46.306 0-25.56 62.165-46.237 138.845-46.237z" horiz-adv-x="1111" />
<glyph unicode="&#xe614;" d="M708.292 332.446c-94.303 39.259-116.629 52.861-116.629 52.861l-0.924 90.447c0 0 35.327 27.183 46.397 112.302 21.987-6.421 45.232 32.931 46.49 53.66 1.176 19.925-3.107 75.384-30.038 69.849 5.453 41.737 9.402 79.24 7.553 99.132-6.973 72.693-78.534 149.302-188.611 149.302-109.923 0-181.577-76.609-188.616-149.302-1.849-19.892 2.095-57.39 7.63-99.132-27.013 5.535-31.29-49.924-30.038-69.849 1.263-20.729 24.415-60.081 46.572-53.66 10.911-85.12 46.314-112.302 46.314-112.302l-0.919-90.447c0 0-22.408-13.597-116.546-52.861-94.472-39.434-189.705-66.95-217.981-111.088-25.504-39.604-17.874-285.364-17.874-285.364h942.988c0 0 7.559 245.76-17.868 285.364-28.277 44.138-123.591 71.654-217.899 111.088zM1357.62 192.327c-25.422 39.768-25.082 64.434-109.83 99.849-84.737 35.239-104.88 47.485-104.88 47.485l-0.662 81.214c0 0 31.711 24.503 41.611 100.942 19.794-5.754 40.61 29.611 41.78 48.201 1.006 17.918-2.767 67.705-27.008 62.755 4.868 37.503 8.549 71.2 6.875 89.068-6.29 65.315-70.642 134.114-169.479 134.114s-163.113-68.804-169.49-134.114c-1.679-17.874 1.849-51.565 6.886-89.068-24.328 4.95-28.195-44.838-27.019-62.755 1.176-18.585 21.987-53.95 41.786-48.201 9.905-76.44 41.709-100.942 41.709-100.942l-27.948-21.812c79.295-37.591 165.88-90.704 165.88-143.981 0-54.617 0-200.441 0-319.088h305.83c-0.016 0.005 6.864 220.847-16.042 256.332z" horiz-adv-x="1375" />
<glyph unicode="&#xe615;" d="M0 960v-1024h1260.309v1024h-1260.309zM1102.771 93.537h-945.234v708.926h945.234v-708.926zM452.615 507.385c65.233 0 118 52.927 118 118.231 0 65.233-52.767 118.077-118 118.077-65.381 0-118.303-52.844-118.303-118.077 0-65.31 52.921-118.231 118.303-118.231zM1024 458.001l-124.767 226.313-169.233-365.773-99.841 102.074c0 0-138.316-51.386-183.849-130.152-72.616 39.383-111.998 0-111.998 0l-98.003-118.154h787.691v285.693z" horiz-adv-x="1260" />
<glyph unicode="&#xe616;" d="M819.195 618.664h-136.532v341.336h-273.059v-341.336h-136.536l273.059-273.059zM946.654 686.936h-59.196v-68.273h14.060l87.396-204.795h-238.006c0-113.129-91.643-204.805-204.781-204.805-113.129 0-204.8 91.676-204.8 204.805h-237.997l87.396 204.795h14.065v68.273h-59.191l-145.6-341.332v-409.605h1092.264v409.605l-145.609 341.332z" horiz-adv-x="1092" />
<glyph unicode="&#xe617;" d="M0 960v-1024h1092.265v1024h-1092.265zM68.265 4.265v887.466h273.069v-887.471h-273.069zM1024 4.265h-614.402v409.603h614.402v-409.603zM1024 482.132h-614.402v409.598h614.402v-409.598z" horiz-adv-x="1092" />
<glyph unicode="&#xe618;" d="M512 960c-282.67 0-512-229.33-512-512 0-282.665 229.33-512 512-512 282.665 0 512.005 229.33 512.005 512 0 282.67-229.34 512-512.005 512zM651.867 181.339c0 0 0.068-0.072 0.13-0.072 3.067 0.396 3.733-0.068 6.070 3.868 0-6.201 1.333-12.064 3.868-17.733-7.133 28.131 21.466 29 34.394 45.661 4.936 6.466 12.933 24.263 19.201 26.933 3.327-4.931 4.076-10.398 2.275-16.067 1.463 4.076 0.193 0.275-0.275-1.125-0.13-5.67-1.135-11.074-3.593-16.14-1.004 0.932-1.536 2.067-1.734 3.405-22.669-18.405-22.398-70.6-53.205-83.61-16.536-6.93-14.469 15.401-8.268 23.273 9.205 11.735-3.395 19.399 2.337 30.932-0.406 0-0.734 0.531-1.072 0.599-0.068-0.068-0.13-0.068-0.13-0.068 0 0.077 0 0.145 0 0.145-5.602 1.328-10.996 15.265-10.996 23.2 6.597 1.193 9.992 5.196 10.528 2.796 1.676 2.067 9.34 15.599 9.403 17.666 2.062-11.735-14.802-34.472-8.934-43.662zM882.129 508.536c-8.529 16.4-16.062 35.467-22.263 45.202-10.934 17.332-17.864 45.067-33.733 58.266 3.733-4.602 4.206-9.465 1.203-14.536-8.268 2.468-14.99 7.201-19.863 14.536-0.797 3.332 8.466-4.535 3.327 5.467-13.136-1.734-22.529 11.798-33.264 19.332-18.868 2.468-39.398-13.469-58.671-2.202-4.467 2.666-8.727 18.202-15.724 9.2-3.67-4.733-7.601-4.733-13.073-3.134-21.534 6.534-30.869 25.001-50.331 25.537 0.198-8.268 14.068-20.467 20.66-24.267 8.673-4.998 14.744-26.735 15.802-7.336 12.402-7.133 3.603-23.002 21.206-17.134 13.397-5.201 9.794 16.27 12.59 22.669 4.206-2.535 6.539-12.938 9.939-16.27 6.998-6.534 17.004-3.999 23.466-10.731 8.2-8.533 12.865-20.8 10.866-31.067-7.664 0.599-1.594-9.2-6.399-16.734-5.196-7.867-4.728-9.601-8.002-18.134-9.065-2.27-19.8-6.404-18.129-18.265-6.336-7.601-62.868-48.535-70.334-37.335-9.19 13.87-11.465 33.134-18.936 47.801-11.059 3.665-34.124 31.796-38.668 42.662 3.41 19.134-47.129 56.735-55.33 57.001 6.003-26.001 28.401-39.736 38.736-59.797 8.736-17.202 24.799-57.599 38.195-63.134 22.345 2.13 36.070-38.403 48.003-46.801 15.541-10.798 47.4 24.267 60.999 20.8 1.526-18.4 1.203-23.934-4.4-44.266-11.334-41.6-30.468-59.599-55.069-93.332-14.193-19.399-23.393-33.066-34.061-54.407-8.331-16.864 16.062-52.133 9.403-61.53 3.593-27.527-3.134-43.662-26.938-57.401-17.4-10.132-32.4-19.733-26.537-38.799 5.94-19.066-17.801-22.065-20.597-32.801-7.263-17.728-17.4-27.194-29.604-33.868-8.157-0.526-16.294-1.198-24.596-1.198-14.971 0-29.638 1.13-44.169 2.801-19.259 24.132-39.301 49.732-59.961 73.864-12.6 14.401-29.604 40.668-11.204 59.203 2.067 12.001-12.329 39.736-18.728 50.331-10.736 17.936-60.265 56.735-40.938 77.535 2.666 13.735-9.403 27.402-9.403 38.2-10.533 8.466-21.264-11.334-31.526 6.597-10.934 19.201-30.801 13.933-47.269 2.135-3.665-2.531-49.399-9.335-53.465-5.732-34.805 31.067-45.869 79.8-33.805 121.602 4.936 17.332 5.534 48.134 19.332 59.734 4.535 17.999 25.335 35.732 36.403 50.534 5.863 7.935 15.468 8.664 22.336 16.801 10.335 12.131 15.338 26.532 28.672 37.263 13.469 10.668 42.329 28.87 17.801 32.733 9.731 14.271 25.262 29.869 30.995 46.999 8.432 6.737 24.171 3.931 33.607 8.601 8.137 16.666 11.465 16.13 8.393 26.798 1.671 6.8 23.268 12.001 27.87 13.735 8.5 3.332 16.13 11.199 23.862 16.932 32.236 9.069 66.099 14.266 101.203 14.266 186.393 0.005 341.061-136.66 370.124-314.925zM524.001 758.666c-0.068-6.732 24.055-5.732 27.662-6.664-6.466 1.603 2.207 1.333 0 0 21.94 13.599-45.135 26.6-45.932 27.068 1.801 0.802 3.004 2.067 3.395 3.863-11.996-4.4-4.192 8.669-15.459-4.4 2.922-9.934-10.137-16.531-4.467-27.064 11.663-9.871 23.335 5.327 34.8 7.196zM435.528 732.602c-11.861 6.732-3.327-2.666-10.528-10.663-10.475-11.933-9.533-15.932-25.533-9.799-0.666 13.266 30.067 1.463 16 25.735-7.003 12.001-13.739 26.267-27.010 17.468-12.522-8.268-35.124-13.068-44.86-31.067-5.732-6.003-46.067-37.133-45.937-39.866 15.594-12.667 77.004 37.466 92.404 22.736-1.004-10.402-13.005-18.269-13.271-28.734 4.598-1.932 5.737-6.404 11.064-7.201 20.331 4.4 14.874-9.601 29.869-13.266 25.069-6.201 5.935-1.531 21.742 14.135 5.196 4.998 32.859 4.467 34.124-4.202-0.797 5.399 11.605 2.135 0 0 12.339 2.27 24.2-10.132 33.337-0.932 6.534 6.399 11.861 5.134 16.729 1.531 22.331-16.13 14.797 46.733 15.396 49.732-7.732-4.998-52.456-9.663-52.133-4.998 0.806 5.467-5.737 5.868-8.268 12.798 8.741 10.402-7.597 5.201 1.135 16.536-4.4 2.265-8.867 2.265-13.266 0-1.869-7.466 3.67-4.8-6.206-2.733-3.265-8.065 7.669-13.532 6.206-20.998-1.333 1.067-2.864 1.666-4.467 1.599-1.401-5.399-0.406-4.129-0.536-12.662-15.198 2.796-6.935 14.333-19.931 30.932 11.793 9.398-24.47 27.87-19.337 33.733-25.591-6.882 20.341-33.68 13.276-39.813zM388.461 722.6c-2.531-1.067-5.134-1.599-7.795-1.599 2.067 6.466 11.465 29.531 17.202 30.468-0.41-8.335-8.007-20.269-9.408-28.87zM388.461 722.6c1.072 6.466-3.994 0.734 0 0v0zM606.534 750.866c-6.070-2.333 1.531-20.665 11.064-19.931 6.742-5.732 14.338-6.8 22.669-3.332-2.207 15.531-41.073 45.999-53.741 52.664 1.869 1.734 2.603 7.268 6.742 6.669-3.801 16.666-21.075 3.197-21.075-7.336 6.476-7.799 32.675-21.466 34.341-28.734zM617.598 730.936c-7.336-0.536 4.598-5.066 0 0v0zM636.925 777.997c-6.191 1.401-12.793 15.203-19.327 17.202-0.729-3.53-0.473-3.134-1.072-5.597 0.473 1.864 2.873-4.602 0 0 2.405-4.004 13.203-19.269 20.399-11.605zM356.269 755.869c-1.265-2.135-3.472-3.071-5.597-4.134-0.179-0.338-0.275-0.536-0.473-0.869 2.067-0.864 4.337 5.67 6.070 5.003z" />
<glyph unicode="&#xe619;" d="M1092.268 140.794v819.206h-1092.268v-819.206h409.603v-136.522h-273.072v-68.273h819.201v68.273h-273.067v136.522h409.603zM68.268 209.067v682.665h955.737v-682.665h-955.737z" horiz-adv-x="1092" />
<glyph unicode="&#xe61a;" d="M447.995 704c247.441 0 448.002 57.342 448.002 128.003s-200.56 127.997-448.002 127.997c-247.435 0-447.995-57.342-447.995-128.003s200.56-127.997 447.995-127.997zM0 729.533v-153.53c0-70.655 200.56-128.003 447.995-128.003 247.441 0 448.002 57.342 448.002 128.003v153.53c-127.941-86.032-407.752-89.532-448.002-89.532-40.243 0-320.055 3.5-447.995 89.532zM0 473.533v-153.53c0-70.623 200.56-128.003 447.995-128.003 247.441 0 448.002 57.373 448.002 128.003v153.53c-127.941-86.032-407.752-89.532-448.002-89.532-40.243 0-320.055 3.5-447.995 89.532zM0 217.502v-153.499c0-70.623 200.56-128.003 447.995-128.003 247.441 0 448.002 57.373 448.002 128.003v153.499c-127.941-86.001-407.752-89.5-448.002-89.5-40.243 0-320.055 3.493-447.995 89.5z" horiz-adv-x="896" />
<glyph unicode="&#xe61b;" d="M582.508 960c-321.726 0-582.508-260.813-582.508-582.503v-291.251h1165.006v291.251c0 321.69-260.829 582.503-582.498 582.503zM578.128 814.38c40.148 0 72.782-32.357 72.782-72.104 0.714-18.418-6.539-37.123-20.337-51.375-13.506-14.080-32.43-22.152-51.73-22.152h-0.714c-39.397 0-71.353 31.111-72.776 70.784-0.042 41.853 32.634 74.847 72.776 74.847zM148.535 282.141h-4.37c-23.112 2.279-40.419 11.811-52.616 27.033-12.192 15.211-17.74 34.266-15.613 53.466 3.911 36.764 34.985 64.636 72.213 64.636l7.926-0.428c19.336-2.065 36.654-11.592 48.778-26.663 12.197-15.216 17.704-34.281 15.54-53.685-4.302-37.327-34.49-64.36-71.859-64.36zM281.688 509.831c-14.93-20.906-37.123-32.571-60.334-32.571-15.258 0-30.224 4.871-42.13 13.725-14.513 9.423-25.604 25.954-29.442 45.326-3.802 19.055 0.177 38.969 10.883 54.681 22.392 32.138 68.933 41.201 100.962 20.118 33.395-24.201 41.566-68.255 20.061-101.28zM410.532 625.873c-9.887-5.653-21.897-8.818-34.099-8.818-26.303 0-51.62 14.721-64.49 37.509-19.159 36.831-5.898 79.957 29.552 99.335 35.053 18.914 81.521 4.302 98.798-30.256 18.491-35.444 5.543-78.643-29.76-97.77zM582.508 122.66c-60.225 0-109.227 48.997-109.227 109.217s48.997 109.217 109.227 109.217c60.225 0 109.211-48.997 109.211-109.217s-48.992-109.217-109.211-109.217zM803.929 669.108l-111.996-342.168c-26.663 30.72-65.632 50.557-109.425 50.557-6.623 0-12.943-1.069-19.31-1.919l172.033 322.717c18.783 35.335 47.073 58.801 62.79 52.121 15.712-6.685 18.424-43.266 5.908-81.308zM879.725 515.16c-11.232 15.394-15.717 34.594-12.515 53.79 3.28 19.268 13.934 36.122 30.157 47.391 32.133 22.58 79.493 14.116 101.676-17.845 10.664-14.685 15.216-33.567 12.161-52.481-3.066-19.122-13.73-36.618-29.442-47.96-13.579-9.136-27.867-13.548-42.442-13.548-24.040 0.005-45.66 11.17-59.594 30.652zM1054.569 279.586c-13.579-9.105-27.867-13.506-42.442-13.506-24.035 0-45.649 11.165-59.594 30.647-11.232 15.425-15.717 34.631-12.505 53.821 3.259 19.206 13.934 36.127 30.136 47.365 32.143 22.611 79.493 14.080 101.687-17.85 10.664-14.721 15.216-33.562 12.161-52.476-3.051-19.128-13.725-36.618-29.442-48.001zM0 13.428h1165.006v-77.433h-1165.006v77.433z" horiz-adv-x="1165" />
<glyph unicode="&#xe61c;" d="M704.001 832.002h-127.998c0 70.686-57.312 127.998-128.002 127.998-70.686 0-128.002-57.312-128.002-127.998h-127.998v-128.002h512v128.002zM448.001 767.999c-35.372 0-63.999 28.658-63.999 64.003s28.627 63.999 63.999 63.999c35.376 0 63.999-28.658 63.999-63.999s-28.623-64.003-63.999-64.003zM768 832.002v-192.001h-640.002v192.001h-127.998v-896.002h895.998v896.002h-127.998zM418.311 72.687l-226.315 226.315 90.505 90.5 135.81-135.814 258.312 258.312 90.509-90.5-348.821-348.812z" horiz-adv-x="896" />
</font>
</defs>
</svg>
